<svg xmlns="http://www.w3.org/2000/svg" viewBox="0 0 266.81 134.7"><g id="Layer_2" data-name="Layer 2"><g id="Layer_2-2" data-name="Layer 2"><g id="gnuplot_plot_1c" data-name="gnuplot plot 1c"><path d="M266.23,59h-46.6l-.47.1h-8l-.47.1h-4.41l-.47.1h-3.06l-.47.1H200l-.41.1H197.8l-.41.1H196l-.41.1h-.89l-.47.1h-.88l-.47.1H192l-.41.1h-.89l-.47.1h-.41l-.47.1h-.47l-.41.1H188l-.42.1h-.47l-.41.1-.47.1h-.41l-.47.1-.47.1h-.41l-.48.1-.41.1-.47.1h-.41l-.47.1-.41.1-.47.1-.41.1-.48.1-.47.1-.41.1-.47.1-.41.1-.47.1-.41.2-.47.1-.42.1-.47.2-.47.1-.41.1-.47.2-.41.2-.47.1-.41.2-.47.2L173,64l-.47.1-.47.2-.41.2-.47.3-.41.2-.47.2-.42.2-.47.3-.41.2-.47.3-.41.2-.47.3-.47.3-.41.3-.47.3-.42.3-.47.4-.41.3-.47.3-.41.4-.47.4-.47.4-.41.4-.48.4-.41.4-.47.4-.41.5-.47.4-.41.5-.47.5-.47.5-.42.5-.47.6-.41.5-.47.6-.41.6-.47.6-.41.6-.47.6-.42.6-.47.7-.47.7-.41.7-.47.7-.41.7-.47.7-.41.8-.48.7-.41.8-.47.8-.47.8-.41.9-.47.8L149,90l-.47.8-.42.9-.47.9-.41.9-.47.9-.47,1-.41.9-.47,1-.41.9-.47,1-.42,1-.47,1-.41.9-.47,1-.41,1-.47,1-.47,1-.42,1-.47,1-.41,1-.47,1-.41.9-.47,1-.41,1-.47.9-.47,1-.42.9-.47.9-.41.9-.47.9-.41.9-.47.9-.41.8-.47.8-.48.8-.41.8-.47.7-.41.8-.47.7-.41.7-.47.6-.42.6-.47.6-.41.6-.47.5-.47.6-.41.4-.47.5-.41.4-.47.4-.42.4-.47.3-.41.3-.47.3-.47.3-.41.2-.47.2-.41.1-.48.2-.41.1-.47.1h-.41l-.47.1h-.88l-.47-.1h-.42l-.47-.1-.41-.1-.47-.1-.41-.2-.47-.1-.41-.2-.47-.2-.47-.2-.42-.3-.47-.2-.41-.3-.47-.2-.41-.3-.47-.3-.41-.3-.48-.3-.47-.3-.41-.4-.47-.3-.41-.3-.47-.4-.41-.4-.47-.3-.42-.4-.47-.4-.41-.3-.47-.4-.47-.4-.41-.4-.47-.4-.41-.4-.47-.4-.42-.4-.47-.4-.41-.3-.47-.4-.47-.4-.41-.4-.47-.4-.42-.4-.47-.4-.41-.4-.47-.4-.41-.4-.47-.4-.47-.3-.41-.4-.47-.4-.42-.4-.47-.3-.41-.4-.47-.4-.41-.3-.47-.4-.41-.3-.47-.4-.48-.3-.41-.4-.47-.3-.41-.4-.47-.3-.41-.3-.47-.4-.41-.3-.48-.3-.47-.3-.41-.3-.47-.3-.41-.4-.47-.3-.41-.3-.47-.2-.42-.3-.47-.3-.47-.3-.41-.3-.47-.3-.41-.2-.47-.3-.41-.3-.48-.2-.41-.3-.47-.3-.41-.2-.47-.3-.47-.2-.41-.3-.47-.2-.42-.2-.47-.3-.41-.2-.47-.2-.41-.3-.47-.2-.47-.2-.41-.2-.47-.2-.42-.2-.47-.3-.41-.2-.47-.2-.41-.2-.47-.2-.47-.2-.42-.2-.47-.2-.41-.1-.47-.2-.41-.2-.47-.2-.41-.2-.47-.2-.42-.1-.47-.2-.47-.2-.41-.2-.47-.1-.41-.2-.47-.1-.41-.2-.47-.2L65,99.7l-.47-.2-.47-.1-.41-.2-.47-.1-.41-.2-.47-.1-.42-.2-.47-.1L61,98.3l-.47-.1-.47-.2-.41-.1-.47-.1-.41-.2-.47-.1-.42-.1-.47-.2L57,97.1l-.47-.1-.41-.1-.47-.2-.47-.1-.41-.1-.48-.1-.41-.2-.47-.1L53,96l-.47-.1-.41-.1-.47-.1-.47-.2-.42-.1-.47-.1-.41-.1-.47-.1L49,95l-.47-.1-.41-.1-.47-.1-.47-.1-.42-.1-.47-.1-.41-.1-.47-.1L45,94.1l-.47-.1-.41-.1-.48-.1-.41-.1-.47-.1-.47-.1-.41-.1-.47-.1L41,93.2l-.47-.1-.42-.1-.47-.1-.41-.1h-.47l-.47-.1-.41-.1-.47-.1L37,92.4l-.47-.1-.42-.1h-.47l-.41-.1-.47-.1-.47-.1-.41-.1h-.47L33,91.7l-.48-.1-.41-.1-.47-.1h-.41l-.47-.1-.41-.1-.47-.1h-.47L29,91l-.47-.1-.41-.1h-.47l-.41-.1-.47-.1h-.41l-.47-.1-.48-.1L25,90.3h-.47l-.41-.1-.47-.1h-.41l-.47-.1-.41-.1h-.48l-.47-.1L21,89.7h-.47l-.41-.1h-.47l-.41-.1-.47-.1h-.42l-.47-.1-.41-.1H17l-.47-.1h-.41l-.47-.1-.41-.1h-.48l-.41-.1h-.47l-.41-.1L13,88.6h-.47l-.41-.1h-.47l-.42-.1h-.47l-.41-.1-.47-.1H9.46L9,88.1H8.52L8.11,88H7.64l-.42-.1H6.75l-.41-.1H5.87l-.41-.1H5l-.41-.1-.48-.1H3.63l-.41-.1H2.75l-.41-.1H1.87l-.41-.1H1l-.42-.1H.1L.57,87H1l.47-.1h.88l.41-.1h.47l.41-.1H4.1l.48-.1H5l.47-.1h.41l.47-.1h.41l.47-.1h.89l.41-.1H9l.47-.1h.41l.47-.1h.41l.47-.1h.89l.41-.1H13l.47-.1h.41l.47-.1h.89l.41-.1h.47l.41-.1h.94l.41-.1h.47l.42-.1h.88l.47-.1h.41L21,85h.88l.48-.1h.41l.47-.1h.88l.41-.1h.88l.48-.1h.47l.41-.1h.88l.47-.1H29l.42-.1h.47l.47-.1h.88l.41-.1h.88L33,84h.88l.41-.1h.94l.41-.1h.89l.47-.1h.41l.47-.1h.88l.47-.1h.88l.42-.1h.88l.47-.1h.88l.47-.1h.89l.41-.1h.88l.47-.1h.88l.42-.1h.94l.41-.1h.88l.47-.1h.88l.42-.1h.94l.41-.1h.88l.47-.1h.89l.41-.1h.47l.47-.1H57l.41-.1h.89l.47-.1h.88l.41-.1h.47l.47-.1h.88l.42-.1h.47l.41-.1h.88l.47-.1H65l.42-.1h.88l.47-.1h.41l.47-.1h.41l.47-.1H69l.42-.1h.47l.41-.1h.47l.41-.1h.47l.41-.1h.47l.42-.1.47-.1h.47l.41-.1h.47l.41-.1.47-.1h.42l.47-.1L77,80h.47l.47-.1.41-.1.47-.1h.41l.47-.1.42-.1.47-.1.41-.1h.47l.47-.1.41-.1.47-.1.41-.1.48-.1.41-.1.47-.1.41-.2.47-.1.41-.1.47-.1.47-.1.42-.2.47-.1.41-.1.47-.2.41-.1.47-.2.41-.1.47-.2.48-.1.41-.2.47-.2.41-.2.47-.1.41-.2.47-.2.41-.2.48-.2.47-.3.41-.2.47-.2.41-.3.47-.2.41-.3.47-.2.42-.3.47-.3.41-.3.47-.3.47-.3.41-.3.47-.3L101,71l.47-.3.42-.4.47-.3.41-.4.47-.4.47-.4.41-.4.47-.5.42-.4.47-.5.41-.4.47-.5.41-.5.47-.5.47-.5.41-.6.47-.5.42-.6.47-.6.41-.6.47-.6.41-.6.47-.7.41-.6.47-.7.48-.7.41-.7.47-.7.41-.8.47-.7.41-.8.47-.8.42-.8.47-.8.47-.8L117,50l.47-.9.41-.8.47-.9.41-.9.47-.9.42-1,.47-.9.47-1,.41-.9.47-1,.41-1,.47-.9.41-1,.48-1,.41-1,.47-1,.41-1.1.47-1,.47-1,.41-1,.47-1,.42-1,.47-1,.41-1,.47-1,.41-1,.47-.9.47-1,.41-1,.47-.9.42-.9.47-.9.41-.9.47-.9.41-.8.47-.9.47-.8.42-.8.47-.7.41-.8.47-.7.41-.7.47-.7.41-.6.47-.6.42-.6.47-.6.47-.5.41-.5.47-.5.41-.4.47-.4.41-.4.47-.3.42-.4.47-.3.47-.2.41-.3.47-.2.41-.2.47-.1.42-.1.47-.1.41-.1.47-.1h1.35l.41.1.47.1h.42l.47.1.41.2.47.1.41.2.47.2.47.2.41.2.48.2.41.2.47.3.41.3.47.2.41.3.47.3.47.3.42.3.47.4.41.3.47.3.41.4.47.3.41.4.47.3.42.4.47.4.47.3.41.4.47.4.41.4.47.3.41.4.48.4.41.4.47.4.47.4.41.3.47.4.41.4.47.4.42.3.47.4.41.4.47.4.47.3.41.4.47.4.41.3.47.4.42.3.47.4.41.3.47.4.41.3.47.3.47.4.42.3.47.3.41.4.47.3.41.3.47.3.41.3.47.3.47.3.42.3.47.3.41.3.47.3.41.3.47.3.41.3.47.2.48.3.41.3.47.2.41.3.47.3.41.2.47.3.41.2.48.3.41.2.47.2.47.3.41.2.47.2.41.3.47.2.42.2.47.2.41.2.47.2.47.3.41.2.47.2.41.2.48.2.41.2.47.1.41.2.47.2.47.2.41.2.47.2.42.1.47.2.41.2.47.2.41.1.47.2.41.2.47.1.47.2.42.1.47.2.41.2.47.1.41.2.47.1.41.1.48.2.47.1.41.2.47.1.41.2.47.1.41.1.47.2.42.1.47.1.47.1.41.2.47.1.41.1.47.1.41.2.47.1.42.1.47.1.41.1.47.1.47.2.41.1.47.1.41.1.48.1.41.1.47.1.41.1.47.1.47.1.41.1.47.1.42.1.47.1.41.1.47.1.41.1.47.1.47.1.41.1.48.1.41.1.47.1h.41l.47.1.41.1.47.1.41.1.48.1.47.1h.41l.47.1.41.1.47.1.41.1h.47l.42.1.47.1.47.1.41.1h.47l.41.1.47.1.41.1h.48l.41.1.47.1h.47l.41.1.47.1h.41l.47.1.42.1.47.1h.41l.47.1.41.1h.47l.47.1h.41l.47.1.42.1h.47l.41.1.47.1h.41l.47.1h.47l.42.1.47.1h.41l.47.1h.41l.47.1h.41l.47.1.47.1h.42l.47.1h.41l.47.1h.41l.47.1h.41l.47.1h.42l.47.1h.47l.41.1h.47l.41.1h.47l.41.1h.48l.41.1h.47l.47.1h.41l.47.1h.41l.47.1h.42l.47.1h.41l.47.1h.47l.41.1h.88l.48.1h.41l.47.1h.41l.47.1h.41l.47.1h.89l.47.1h.41l.47.1h.88l.41.1h.47l-.47.1h-.88l-.41.1h-.47l-.41.1h-.89l-.47.1h-.88l-.47.1h-.41l-.47.1h-.89l-.41.1h-.88l-.47.1h-.88l-.47.1h-.42l-.47.1h-.88l-.41.1h-.94l-.41.1h-.89l-.47.1h-.88l-.41.1h-.94l-.42.1h-1.35l-.41.1h-.88l-.47.1h-.89l-.47.1h-.88l-.41.1h-1.35l-.42.1h-.94l-.41.1H238.7l-.42.1h-.88l-.47.1h-1.35l-.41.1h-.89l-.47.1h-1.29l-.47.1h-1.36l-.41.1h-.88l-.47.1h-1.35l-.42.1h-1.35l-.41.1h-1.35l-.48.1h-1.29l-.47.1h-.88l-.41.1h-1.36l-.47.1H217.4l-.47.1h-1.3l-.47.1h-1.35l-.41.1h-.89l-.47.1h-1.35l-.41.1h-.89l-.47.1h-1.29l-.47.1h-.88l-.47.1h-.89l-.41.1h-.88l-.47.1h-.88l-.48.1h-.88l-.41.1h-.88l-.47.1h-.42l-.47.1h-.88l-.47.1h-.41l-.47.1h-.41l-.47.1h-.42l-.47.1h-.41l-.47.1h-.47l-.41.1H192l-.41.1h-.48l-.41.1h-.47l-.41.1-.47.1h-.47l-.41.1-.47.1h-.42l-.47.1-.41.1-.47.1h-.41l-.47.1-.47.1-.41.1-.48.1-.41.1-.47.1-.41.1-.47.1-.41.1-.47.1-.41.1-.48.1-.47.1-.41.1-.47.2-.41.1-.47.1-.41.2-.47.1-.42.2-.47.1-.47.2-.41.1-.47.2-.41.2-.47.2-.41.1-.47.2L173,57l-.47.2-.47.2-.41.3-.47.2-.41.2-.47.3-.42.2-.47.3-.41.2-.47.3-.41.3-.47.3-.47.3-.41.3-.47.3-.42.3-.47.4-.41.3-.47.4-.41.4-.47.4-.47.4-.41.4-.48.4-.41.4-.47.5-.41.4-.47.5-.41.5-.47.5-.47.5-.42.6-.47.5-.41.6-.47.5-.41.6-.47.6-.41.7-.47.6-.42.7-.47.6-.47.7-.41.7-.47.7-.41.8-.47.7-.41.8-.48.8-.41.8-.47.8-.47.8-.41.8-.47.9-.41.9-.47.9-.42.8-.47,1-.41.9-.47.9-.47,1-.41.9-.47,1-.41.9-.47,1-.42,1-.47,1-.41,1-.47,1-.41,1-.47,1-.47,1-.42,1-.47,1-.41,1-.47,1-.41,1-.47,1-.41,1-.47.9-.47,1-.42.9-.47,1-.41.9-.47.9-.41.9-.47.8-.41.9-.47.8-.42.8-.47.8-.47.8-.41.7-.47.7-.41.7-.47.7-.42.6-.47.6-.41.6-.47.5-.47.6-.41.5-.47.4-.41.5-.47.4-.42.3-.47.4-.41.3-.47.3-.47.3-.41.2-.47.2-.41.2-.48.1-.41.1-.47.1-.41.1H121l-.41.1h-.47l-.47-.1h-.42l-.47-.1-.41-.1-.47-.1-.41-.1L117,128l-.41-.1-.47-.2-.47-.2-.42-.2-.47-.3-.41-.2-.47-.3-.41-.3L113,126l-.41-.3-.48-.3-.47-.3-.41-.4-.47-.3-.41-.3-.47-.4-.41-.3L109,123l-.42-.3-.47-.4-.41-.4-.47-.3-.47-.4-.41-.4-.47-.4-.41-.4-.47-.3-.42-.4-.47-.4-.41-.4-.47-.4-.47-.4-.41-.4-.47-.3-.42-.4-.47-.4-.41-.4-.47-.4-.41-.4-.47-.3-.47-.4-.41-.4-.47-.3-.42-.4-.47-.4-.41-.3-.47-.4-.41-.3-.47-.4-.41-.3-.47-.4-.48-.3-.41-.4-.47-.3-.41-.3-.47-.3-.41-.4-.47-.3-.41-.3-.48-.3-.47-.3-.41-.3-.47-.3-.41-.3-.47-.3-.41-.3-.47-.3-.42-.3-.47-.3-.47-.2-.41-.3-.47-.3-.41-.2-.47-.3-.41-.3-.48-.2-.41-.3-.47-.2-.41-.3-.47-.2L81,102l-.41-.2-.47-.2-.42-.3-.47-.2-.41-.2-.47-.2-.41-.2-.47-.3L77,100l-.41-.2-.47-.2-.42-.2-.47-.2-.41-.2-.47-.2-.41-.2-.47-.2L73,98.2l-.42-.2-.47-.1-.41-.2-.47-.2-.41-.2-.47-.2-.41-.1-.47-.2L69,96.6l-.47-.1-.47-.2-.41-.2-.47-.1-.41-.2-.47-.1-.41-.2-.47-.2L65,95.2l-.47-.2-.47-.1-.41-.2-.47-.1-.41-.1-.47-.2-.42-.1-.47-.2L61,93.9l-.47-.1-.47-.2-.41-.1-.47-.1-.41-.2-.47-.1-.42-.1-.47-.1L57,92.7l-.47-.1-.41-.1-.47-.1-.47-.1-.41-.1-.48-.2-.41-.1-.47-.1L53,91.7l-.47-.1-.41-.1-.47-.1-.47-.1-.42-.1-.47-.1-.41-.1-.47-.2L49,90.7l-.47-.1-.41-.1-.47-.1h-.47l-.42-.1-.47-.1-.41-.1-.47-.1L45,89.9l-.47-.1-.41-.1-.48-.1-.41-.1-.47-.1-.47-.1-.41-.1h-.47L41,89.1l-.47-.1-.42-.1-.47-.1-.41-.1h-.47l-.47-.1-.41-.1-.47-.1L37,88.3h-.47l-.42-.1-.47-.1-.41-.1-.47-.1h-.47l-.41-.1-.47-.1H33l-.48-.1-.41-.1-.47-.1h-.41l-.47-.1-.41-.1h-.47l-.47-.1L29,87l-.47-.1h-.41l-.47-.1-.41-.1h-.47l-.41-.1h-.47l-.48-.1L25,86.4h-.47l-.41-.1-.47-.1h-.41l-.47-.1-.41-.1h-.48l-.47-.1H21l-.47-.1h-.41l-.47-.1-.41-.1h-.47l-.42-.1h-.47l-.41-.1L17,85.3h-.47l-.41-.1h-.47l-.41-.1h-.48l-.41-.1h-.47l-.41-.1H13l-.47-.1h-.41l-.47-.1h-.42l-.47-.1-.41-.1H9.87l-.41-.1H9l-.47-.1H8.11l-.47-.1H6.75l-.41-.1H5.87L5.46,84H5l-.41-.1H4.1l-.47-.1H3.22l-.47-.1H2.34l-.47-.1H1.46L1,83.5H.1l.47-.1H1l.47-.1h.41l.47-.1h.88l.41-.1H4.1l.48-.1H5l.47-.1h.88l.41-.1h.47l.42-.1h.88L9,82.6h.47l.41-.1h.88l.47-.1h.42l.47-.1H13l.47-.1h.88l.41-.1h.48l.41-.1h.88l.47-.1h.88l.47-.1h.89l.41-.1h.88l.47-.1h.41l.47-.1h.89l.47-.1h.88l.41-.1h.88l.48-.1h.88l.47-.1h.88l.41-.1h.89l.47-.1h1.35l.41-.1h.88l.48-.1h.88l.41-.1h.94l.41-.1h.89l.47-.1h1.29l.47-.1h.88l.47-.1H41l.41-.1h1.35l.47-.1h.89l.41-.1h.88l.47-.1h1.3l.47-.1h.88l.47-.1h.88l.41-.1h1.36l.47-.1H53l.41-.1h.88l.48-.1h.88l.47-.1H57l.41-.1h.89l.47-.1h.88l.41-.1H61l.41-.1h.89l.47-.1h.88l.41-.1h.47l.47-.1h.89l.41-.1h.47l.41-.1h.88l.47-.1H69l.42-.1h.47l.41-.1h.47l.41-.1h.47l.41-.1h.47l.42-.1h.47l.47-.1h.41l.47-.1h.41l.47-.1.42-.1h.47l.41-.1.47-.1h.47l.41-.1.47-.1.41-.1h.47l.42-.1.47-.1.41-.1.47-.1h.47l.41-.1.47-.1.41-.1.48-.1.41-.1.47-.1.41-.1.47-.1.41-.2.47-.1.47-.1.42-.1.47-.1.41-.2.47-.1.41-.2.47-.1.41-.2.47-.1.48-.2.41-.1.47-.2.41-.2.47-.2.41-.2.47-.2.41-.2.48-.2.47-.2.41-.2.47-.2.41-.3.47-.2.41-.3.47-.2.42-.3.47-.3.41-.2.47-.3.47-.3.41-.4.47-.3.41-.3.47-.4.42-.3.47-.4.41-.4.47-.4.47-.4.41-.4.47-.4.42-.4.47-.5.41-.5.47-.4.41-.5.47-.5.47-.6.41-.5.47-.5.42-.6.47-.6.41-.6.47-.6.41-.6.47-.7.41-.6.47-.7.48-.7.41-.7.47-.7.41-.8.47-.7.41-.8.47-.8.42-.8.47-.8.47-.8.41-.8.47-.9.41-.9.47-.9.41-.9.47-.9.42-.9.47-.9.47-1,.41-.9.47-1,.41-1,.47-1,.41-1,.48-1,.41-1,.47-1,.41-1,.47-1,.47-1,.41-1,.47-1,.42-1,.47-1,.41-1,.47-1,.41-1,.47-.9.47-1,.41-.9.47-1,.42-.9.47-.9.41-.9.47-.9.41-.8.47-.8.41-.8.48-.8.47-.8.41-.7.47-.8.41-.6.47-.7.41-.6.47-.7.42-.5.47-.6.47-.5.41-.5.47-.5.41-.4.47-.4.41-.4.47-.4.42-.3.47-.3.47-.2.41-.3.47-.2.41-.2.47-.1.42-.1L145,.7l.41-.1h.47l.41-.1h.47l.47.1h.41l.47.1.42.1.47.1.41.1.47.2.41.1.47.2.47.2.41.2.48.2.41.3.47.2.41.3.47.3.41.3.47.3.47.3.42.3.47.3.41.4.47.3.41.4.47.3.41.4.47.3.42.4.47.4.47.3.41.4.47.4.41.4.47.3.41.4.48.4.41.4.47.4.47.4.41.3.47.4.41.4.47.4.42.4.47.3.41.4.47.4.47.4.41.3.47.4.41.4.47.3.42.4.47.3.41.4.47.3.41.4.47.3.47.3.42.4.47.3.41.3.47.4.41.3.47.3.41.3.47.3.47.3.42.3.47.3.41.3.47.3.41.3.47.3.41.3.47.2.48.3.41.3.47.2.41.3.47.3.41.2.47.3.41.2.48.3.41.2.47.3.47.2.41.2.47.3.41.2.47.2.42.2.47.3.41.2.47.2.47.2.41.2.47.2.41.2.48.2.41.2.47.2.41.2.47.2.47.2.41.2.47.1.42.2.47.2.41.2.47.1.41.2.47.2.41.1.47.2.47.2.42.1.47.2.41.1.47.2.41.1.47.2.41.1.48.2.47.1.41.2.47.1.41.2.47.1.41.1.47.2.42.1.47.1.47.2.41.1.47.1.41.1.47.2.41.1.47.1.42.1.47.2.41.1.47.1.47.1.41.1.47.1.41.1.48.2.41.1.47.1.41.1.47.1.47.1.41.1.47.1.42.1.47.1.41.1.47.1.41.1.47.1.47.1.41.1.48.1.41.1h.47l.41.1.47.1.41.1.47.1.41.1.48.1.47.1h.41l.47.1.41.1.47.1.41.1.47.1h.42l.47.1.47.1.41.1.47.1h.41l.47.1.41.1.48.1h.41l.47.1.47.1h.41l.47.1.41.1.47.1h.42l.47.1.41.1h.47l.41.1.47.1h.47l.41.1.47.1h.42l.47.1.41.1h.47l.41.1h.47l.47.1.42.1h.47l.41.1.47.1h.41l.47.1h.41l.47.1h.47l.42.1.47.1h.41l.47.1h.41l.47.1h.41l.47.1h.42l.47.1.47.1h.41l.47.1h.41l.47.1h.41l.48.1h.41l.47.1h.47l.41.1h.47l.41.1h.47l.42.1h.47l.41.1h.94l.41.1h.47l.41.1h.48l.41.1h.47l.41.1h.47l.41.1h.94l.42.1h.47l.41.1h.47l.41.1h.88l.47.1" fill="none" stroke="#000"/></g></g></g></svg>